<?xml version="1.0" encoding="UTF-8" standalone="no"?>
<!-- Created with Inkscape (http://www.inkscape.org/) -->

<svg
   xmlns:dc="http://purl.org/dc/elements/1.1/"
   xmlns:cc="http://creativecommons.org/ns#"
   xmlns:rdf="http://www.w3.org/1999/02/22-rdf-syntax-ns#"
   xmlns:svg="http://www.w3.org/2000/svg"
   xmlns="http://www.w3.org/2000/svg"
   xmlns:sodipodi="http://sodipodi.sourceforge.net/DTD/sodipodi-0.dtd"
   xmlns:inkscape="http://www.inkscape.org/namespaces/inkscape"
   width="139.99612mm"
   height="50.721771mm"
   viewBox="0 0 139.99612 50.72177"
   version="1.1"
   id="svg8"
   inkscape:version="0.92.3 (2405546, 2018-03-11)"
   sodipodi:docname="Logo-SensIT-Color-Text.svg"
   inkscape:export-filename="C:\Users\berrocal\Chalmers tekniska hogskola\SensIT - Documentos\Graphic material\Logo\Logo-SensIT-Color-Text.png"
   inkscape:export-xdpi="300.03677"
   inkscape:export-ydpi="300.03677">
  <defs
     id="defs2">
    <inkscape:perspective
       sodipodi:type="inkscape:persp3d"
       inkscape:vp_x="0 : 148.5 : 1"
       inkscape:vp_y="0 : 999.99996 : 0"
       inkscape:vp_z="210.00001 : 148.5 : 1"
       inkscape:persp3d-origin="105 : 98.999996 : 1"
       id="perspective815" />
  </defs>
  <sodipodi:namedview
     id="base"
     pagecolor="#ffffff"
     bordercolor="#666666"
     borderopacity="1.0"
     inkscape:pageopacity="0"
     inkscape:pageshadow="2"
     inkscape:zoom="2.8"
     inkscape:cx="129.56859"
     inkscape:cy="162.82168"
     inkscape:document-units="mm"
     inkscape:current-layer="layer1"
     showgrid="false"
     inkscape:snap-intersection-paths="true"
     inkscape:snap-midpoints="true"
     inkscape:window-width="3840"
     inkscape:window-height="2004"
     inkscape:window-x="4784"
     inkscape:window-y="-16"
     inkscape:window-maximized="1"
     fit-margin-top="0"
     fit-margin-left="0"
     fit-margin-right="0"
     fit-margin-bottom="0"
     inkscape:pagecheckerboard="true" />
  <metadata
     id="metadata5">
    <rdf:RDF>
      <cc:Work
         rdf:about="">
        <dc:format>image/svg+xml</dc:format>
        <dc:type
           rdf:resource="http://purl.org/dc/dcmitype/StillImage" />
        <dc:title />
      </cc:Work>
    </rdf:RDF>
  </metadata>
  <g
     inkscape:label="Layer 1"
     inkscape:groupmode="layer"
     id="layer1"
     transform="translate(-38.114479,-153.36186)">
    <g
       transform="translate(18.237347,79.142411)"
       inkscape:export-ydpi="599.92383"
       inkscape:export-xdpi="599.92383"
       id="g1690">
      <path
         inkscape:connector-curvature="0"
         id="path1666"
         d="M 20.130219,87.035209 41.780849,99.535211 63.431489,87.035209 41.780849,74.508205 20.130219,87.008207"
         style="fill:#d3f5fd;fill-opacity:1;stroke:#000000;stroke-width:0.5;stroke-linecap:round;stroke-linejoin:miter;stroke-miterlimit:4;stroke-dasharray:none;stroke-opacity:1" />
      <path
         style="fill:#267bc1;fill-opacity:1;stroke:#000000;stroke-width:0.5;stroke-linecap:round;stroke-linejoin:miter;stroke-miterlimit:4;stroke-dasharray:none;stroke-opacity:1"
         d="M 20.130221,87.035208 V 112.00821 L 41.78085,124.5082 V 99.53521 Z"
         id="path1668"
         inkscape:connector-curvature="0" />
      <path
         inkscape:connector-curvature="0"
         id="path1670"
         d="M 63.431489,112.00821 V 87.035209 l -21.65064,12.500002 v 24.972999 z"
         style="fill:#82ccdd;fill-opacity:1;stroke:#000000;stroke-width:0.5;stroke-linecap:round;stroke-linejoin:miter;stroke-miterlimit:4;stroke-dasharray:none;stroke-opacity:1" />
      <path
         sodipodi:nodetypes="cc"
         inkscape:connector-curvature="0"
         id="path1672"
         d="m 31.059389,105.6977 c 7.05601,4.52653 14.20949,4.43955 21.45448,0.0208"
         style="fill:none;stroke:#000000;stroke-width:2.20000005;stroke-linecap:butt;stroke-linejoin:miter;stroke-miterlimit:4;stroke-dasharray:none;stroke-opacity:1" />
      <path
         inkscape:transform-center-y="-6.1841725"
         inkscape:transform-center-x="10.729364"
         style="fill:none;stroke:#000000;stroke-width:2.20000005;stroke-linecap:butt;stroke-linejoin:miter;stroke-miterlimit:4;stroke-dasharray:none;stroke-opacity:1"
         d="m 41.796399,87.142845 c -7.44809,3.847414 -10.9495,10.086001 -10.74529,18.569695"
         id="path1674"
         inkscape:connector-curvature="0"
         sodipodi:nodetypes="cc" />
      <path
         sodipodi:nodetypes="cc"
         inkscape:connector-curvature="0"
         id="path1676"
         d="m 52.496869,105.7188 c 0.39209,-8.373954 -3.25998,-14.525556 -10.70918,-18.590551"
         style="fill:none;stroke:#000000;stroke-width:2.20000005;stroke-linecap:butt;stroke-linejoin:miter;stroke-miterlimit:4;stroke-dasharray:none;stroke-opacity:1"
         inkscape:transform-center-x="-10.74465"
         inkscape:transform-center-y="-6.192513" />
      <circle
         r="3.4789734"
         cy="105.77171"
         cx="52.606163"
         id="circle1678"
         style="opacity:1;fill:#000000;fill-opacity:1;stroke:none;stroke-width:0.542;stroke-linecap:round;stroke-linejoin:round;stroke-miterlimit:4;stroke-dasharray:none;stroke-dashoffset:0;stroke-opacity:1;paint-order:normal" />
      <circle
         style="opacity:1;fill:#000000;fill-opacity:1;stroke:none;stroke-width:0.542;stroke-linecap:round;stroke-linejoin:round;stroke-miterlimit:4;stroke-dasharray:none;stroke-dashoffset:0;stroke-opacity:1;paint-order:normal"
         id="circle1680"
         cx="41.780846"
         cy="87.03521"
         r="3.4789734" />
      <circle
         r="3.4789734"
         cy="105.77171"
         cx="30.955528"
         id="circle1682"
         style="opacity:1;fill:#000000;fill-opacity:1;stroke:none;stroke-width:0.542;stroke-linecap:round;stroke-linejoin:round;stroke-miterlimit:4;stroke-dasharray:none;stroke-dashoffset:0;stroke-opacity:1;paint-order:normal" />
      <circle
         style="opacity:1;fill:#fcfcfc;fill-opacity:1;stroke:none;stroke-width:0.25052878;stroke-linecap:round;stroke-linejoin:round;stroke-miterlimit:4;stroke-dasharray:none;stroke-dashoffset:0;stroke-opacity:1;paint-order:normal"
         id="circle1684"
         cx="52.606163"
         cy="105.77171"
         r="1.6080867" />
      <circle
         r="1.6080867"
         cy="87.03521"
         cx="41.780846"
         id="circle1686"
         style="opacity:1;fill:#fcfcfc;fill-opacity:1;stroke:none;stroke-width:0.25052878;stroke-linecap:round;stroke-linejoin:round;stroke-miterlimit:4;stroke-dasharray:none;stroke-dashoffset:0;stroke-opacity:1;paint-order:normal" />
      <circle
         style="opacity:1;fill:#fcfcfc;fill-opacity:1;stroke:none;stroke-width:0.25052878;stroke-linecap:round;stroke-linejoin:round;stroke-miterlimit:4;stroke-dasharray:none;stroke-dashoffset:0;stroke-opacity:1;paint-order:normal"
         id="circle1688"
         cx="30.955528"
         cy="105.77171"
         r="1.6080867" />
    </g>
    <g
       aria-label="SensIT"
       style="font-style:normal;font-weight:normal;font-size:28.45847511px;line-height:1.25;font-family:sans-serif;letter-spacing:0px;word-spacing:0px;fill:#000000;fill-opacity:1;stroke:none;stroke-width:0.37188685"
       id="text1414">
      <path
         d="m 98.760803,183.74545 q 0,-1.13085 -0.748999,-1.74767 -0.748999,-0.61682 -2.687584,-1.30707 -4.053404,-1.27771 -6.006675,-2.73165 -1.953271,-1.46862 -1.953271,-4.22964 0,-2.68758 2.320427,-4.34713 2.335114,-1.65954 5.918558,-1.65954 3.554072,0 5.815751,1.83578 2.27637,1.82109 2.20294,4.6996 l -0.0294,0.0881 h -4.817091 q 0,-1.27771 -0.866489,-2.07076 -0.866488,-0.80775 -2.393858,-0.80775 -1.497998,0 -2.3498,0.66088 -0.851802,0.66088 -0.851802,1.63018 0,0.93992 0.851802,1.51268 0.866489,0.55808 3.230975,1.40988 3.642193,1.08678 5.477973,2.6729 1.85046,1.58611 1.85046,4.36181 0,2.81976 -2.20293,4.42056 -2.188254,1.58612 -5.815757,1.58612 -3.64219,0 -6.300401,-1.8211 -2.658211,-1.83578 -2.584779,-5.27236 l 0.02937,-0.0881 h 4.831776 q 0,1.85047 0.998665,2.64353 0.998665,0.79306 3.025367,0.79306 1.542056,0 2.291055,-0.61683 0.763685,-0.61682 0.763685,-1.61548 z"
         style="font-style:normal;font-variant:normal;font-weight:normal;font-stretch:normal;font-size:30.07743645px;font-family:Roboto;-inkscape-font-specification:Roboto;fill:#ffffff;fill-opacity:1;stroke-width:0.19652148"
         id="path837" />
      <path
         d="m 113.37362,189.72275 q -3.51001,0 -5.61015,-2.20294 -2.08545,-2.20294 -2.08545,-5.52203 v -0.55808 q 0,-3.6275 1.89453,-5.91855 1.90921,-2.30574 5.4486,-2.29106 3.23097,0 5.06675,1.93859 1.83579,1.93858 1.83579,5.25767 v 2.59947 h -9.07611 l -0.0294,0.0881 q 0.16155,1.21896 0.99867,2.01201 0.83711,0.77837 2.23231,0.77837 1.40988,0 2.24699,-0.22029 0.8518,-0.22029 2.14419,-0.76368 l 1.1749,3.02536 q -1.04272,0.76369 -2.70227,1.27771 -1.64485,0.49933 -3.53938,0.49933 z m -0.35247,-12.67423 q -1.0721,0 -1.61549,0.76368 -0.5287,0.76369 -0.64619,2.04139 l 0.0441,0.0734 h 4.27369 v -0.38184 q 0,-1.20427 -0.49933,-1.85047 -0.49933,-0.64619 -1.55674,-0.64619 z"
         style="font-style:normal;font-variant:normal;font-weight:normal;font-stretch:normal;font-size:30.07743645px;font-family:Roboto;-inkscape-font-specification:Roboto;fill:#ffffff;fill-opacity:1;stroke-width:0.19652148"
         id="path839" />
      <path
         d="m 126.60593,173.52382 0.19092,2.23231 q 0.77837,-1.18959 1.9239,-1.85047 1.14552,-0.67557 2.5554,-0.67557 2.33512,0 3.64219,1.51269 1.32177,1.51268 1.32177,4.81708 v 9.85448 h -4.96396 v -9.86916 q 0,-1.36582 -0.57276,-1.9239 -0.55808,-0.57276 -1.65955,-0.57276 -0.69025,0 -1.23364,0.24966 -0.52871,0.24967 -0.91055,0.69026 v 11.4259 h -4.94926 v -15.89052 z"
         style="font-style:normal;font-variant:normal;font-weight:normal;font-stretch:normal;font-size:30.07743645px;font-family:Roboto;-inkscape-font-specification:Roboto;fill:#ffffff;fill-opacity:1;stroke-width:0.19652148"
         id="path841" />
      <path
         d="m 147.24011,184.94972 q 0,-0.58745 -0.67557,-1.04273 -0.66088,-0.46996 -2.42323,-0.83711 -2.7757,-0.54339 -4.18558,-1.68892 -1.40988,-1.14553 -1.40988,-3.12817 0,-2.10014 1.76235,-3.55407 1.76235,-1.46863 4.77303,-1.46863 3.17223,0 5.05207,1.42457 1.87984,1.40988 1.79172,3.65687 l -0.0294,0.0881 h -4.81709 q 0,-0.93992 -0.48465,-1.42457 -0.46996,-0.48464 -1.52737,-0.48464 -0.77837,0 -1.30707,0.4259 -0.52871,0.4259 -0.52871,1.08678 0,0.63151 0.60214,1.0721 0.61682,0.44059 2.46729,0.79306 2.90788,0.57276 4.30307,1.71829 1.40988,1.13084 1.40988,3.21629 0,2.14419 -1.90921,3.53938 -1.89453,1.38051 -5.0227,1.38051 -3.24566,0 -5.14019,-1.64486 -1.87984,-1.64486 -1.79172,-3.67156 l 0.0294,-0.0881 h 4.49399 q 0.0294,1.13084 0.67557,1.63017 0.66088,0.49934 1.86516,0.49934 0.99866,0 1.51268,-0.38185 0.51402,-0.39653 0.51402,-1.11615 z"
         style="font-style:normal;font-variant:normal;font-weight:normal;font-stretch:normal;font-size:30.07743645px;font-family:Roboto;-inkscape-font-specification:Roboto;fill:#ffffff;fill-opacity:1;stroke-width:0.19652148"
         id="path843" />
      <path
         d="m 159.89965,189.41434 h -4.94926 v -21.38318 h 4.94926 z"
         style="font-style:normal;font-variant:normal;font-weight:normal;font-stretch:normal;font-size:30.07743645px;font-family:Roboto;-inkscape-font-specification:Roboto;fill:#ffffff;fill-opacity:1;stroke-width:0.19652148"
         id="path845" />
      <path
         d="m 178.1106,171.84958 h -5.63951 v 17.56476 h -4.97864 v -17.56476 h -5.59546 v -3.81842 h 16.21361 z"
         style="font-style:normal;font-variant:normal;font-weight:normal;font-stretch:normal;font-size:30.07743645px;font-family:Roboto;-inkscape-font-specification:Roboto;fill:#ffffff;fill-opacity:1;stroke-width:0.19652148"
         id="path847" />
    </g>
  </g>
</svg>
