<?xml version="1.0" encoding="UTF-8" standalone="no"?>
<svg
   xmlns:dc="http://purl.org/dc/elements/1.1/"
   xmlns:cc="http://creativecommons.org/ns#"
   xmlns:rdf="http://www.w3.org/1999/02/22-rdf-syntax-ns#"
   xmlns:svg="http://www.w3.org/2000/svg"
   xmlns="http://www.w3.org/2000/svg"
   xmlns:sodipodi="http://sodipodi.sourceforge.net/DTD/sodipodi-0.dtd"
   xmlns:inkscape="http://www.inkscape.org/namespaces/inkscape"
   version="1.1"
   id="Layer_1"
   x="0px"
   y="0px"
   width="677.01672"
   height="329.72226"
   viewBox="0 0 677.01672 329.72224"
   enable-background="new 0 0 841.89 595.275"
   xml:space="preserve"
   sodipodi:docname="Trafikverket_logo.svg"
   inkscape:version="0.92.3 (2405546, 2018-03-11)"><metadata
   id="metadata883"><rdf:RDF><cc:Work
       rdf:about=""><dc:format>image/svg+xml</dc:format><dc:type
         rdf:resource="http://purl.org/dc/dcmitype/StillImage" /><dc:title></dc:title></cc:Work></rdf:RDF></metadata><defs
   id="defs881" /><sodipodi:namedview
   pagecolor="#ffffff"
   bordercolor="#666666"
   borderopacity="1"
   objecttolerance="10"
   gridtolerance="10"
   guidetolerance="10"
   inkscape:pageopacity="0"
   inkscape:pageshadow="2"
   inkscape:window-width="3840"
   inkscape:window-height="2004"
   id="namedview879"
   showgrid="false"
   fit-margin-top="0"
   fit-margin-left="0"
   fit-margin-right="0"
   fit-margin-bottom="0"
   inkscape:zoom="1.8448068"
   inkscape:cx="375.22155"
   inkscape:cy="33.463096"
   inkscape:window-x="4784"
   inkscape:window-y="-16"
   inkscape:window-maximized="1"
   inkscape:current-layer="Layer_1" />
<g
   id="g915"
   transform="translate(-150.98322,193.51238)"><path
     inkscape:export-ydpi="900"
     inkscape:export-xdpi="900"
     inkscape:export-filename="C:\Users\Simon\Pictures\path29.png"
     d="m 265.73611,131.798 c 0,-3.27293 -0.87998,-4.4013 -0.87998,-4.4013 0,0 -1.64927,0 -2.23945,0 -0.99298,0 -2.08965,-0.155 -2.85913,-0.70698 -1.05338,-0.72999 -1.53857,-1.53857 -2.50874,-3.07923 -1.01658,-1.61146 -6.66065,-10.75235 -6.66065,-10.75235 4.2894,-1.33896 8.07431,-3.21142 10.76155,-9.11018 1.50186,-3.30472 2.04065,-8.588497 2.04065,-13.042387 0,-4.55649 -0.51499,-13.49128 -4.52449,-17.91328 -3.25993,-3.59391 -8.25601,-6.04765 -18.08357,-6.04765 h -26.64257 v 68.294477 c 0,0 1.46526,1.14577 5.70536,1.14577 4.2408,0 5.70897,-1.14577 5.70897,-1.14577 v -21.0001 h 13.55128 c 0,0 9.25038,14.97044 10.89534,17.59418 1.39526,2.22765 2.55974,2.98133 4.0985,3.68301 1.30437,0.57999 2.85133,0.87798 4.48499,0.87798 2.12825,0 6.27176,0.003 6.27176,0.003 0,0 0.87998,-1.12877 0.87998,-4.40129 z m -16.35342,-29.7122 c -2.62354,3.11033 -7.28812,3.05823 -11.40953,3.24252 0,0 -4.82068,0 -6.48924,0 -3.53452,0.49099 -5.93296,2.96193 -5.93296,2.96193 V 75.487433 h 12.09601 c 1.22387,0 2.97013,0.04 3.59622,0.06 2.54054,0.102 5.89656,0.74498 7.59212,2.60374 2.91993,3.20462 2.99602,7.28822 2.99602,11.86522 v 0.50898 c 0,5.43097 -0.54498,9.30398 -2.44864,11.574827 z"
     id="path5"
     style="fill:#0d0d0d"
     inkscape:connector-curvature="0" /><path
     inkscape:export-ydpi="900"
     inkscape:export-xdpi="900"
     inkscape:export-filename="C:\Users\Simon\Pictures\path29.png"
     d="m 650.85318,131.798 c 0,-3.27293 -0.88698,-4.4013 -0.88698,-4.4013 0,0 -1.65006,0 -2.23934,0 -0.98998,0 -2.08975,-0.155 -2.85774,-0.70698 -1.05337,-0.72999 -1.53836,-1.53857 -2.50804,-3.07923 -1.01317,-1.61146 -6.66134,-10.75235 -6.66134,-10.75235 4.2894,-1.33896 8.07581,-3.21142 10.76285,-9.11018 1.49826,-3.30472 2.04055,-8.588497 2.04055,-13.042387 0,-4.55649 -0.51499,-13.49128 -4.5257,-17.91328 -3.26002,-3.59391 -8.2545,-6.04765 -18.08297,-6.04765 H 599.2496 v 68.294477 c 0,0 1.46607,1.14577 5.70577,1.14577 4.2403,0 5.70936,-1.14577 5.70936,-1.14577 v -21.0001 h 13.54808 c 0,0 9.25028,14.97044 10.89534,17.59418 1.39647,2.22765 2.56014,2.98133 4.10101,3.68301 1.30477,0.57999 2.84913,0.87798 4.48259,0.87798 2.12855,0 6.27445,0.003 6.27445,0.003 0,0 0.88698,-1.12877 0.88698,-4.40129 z m -16.35621,-29.7122 c -2.62384,3.11033 -7.28883,3.05823 -11.40643,3.24252 0,0 -4.82439,0 -6.49045,0 -3.53421,0.49099 -5.93206,2.96193 -5.93206,2.96193 V 75.487433 h 12.09622 c 1.22017,0 2.96963,0.04 3.59631,0.06 2.53974,0.102 5.89656,0.74498 7.59112,2.60374 2.91773,3.20462 2.99623,7.28822 2.99623,11.86522 v 0.50898 c -0.002,5.43097 -0.54499,9.30398 -2.45094,11.574827 z"
     id="path7"
     style="fill:#0d0d0d"
     inkscape:connector-curvature="0" /><path
     inkscape:export-ydpi="900"
     inkscape:export-xdpi="900"
     inkscape:export-filename="C:\Users\Simon\Pictures\path29.png"
     d="m 382.82553,66.754443 h -42.76819 l 0.005,68.297577 c 0,0 1.46547,1.14807 5.70637,1.14807 4.2396,0 5.70706,-1.14807 5.70706,-1.14807 l -0.004,-29.97439 h 24.44652 c 0,0 0.87898,-1.11998 0.87898,-4.3688 0,-3.242117 -0.87898,-4.368087 -0.87898,-4.368087 0,0 -15.30863,0 -18.52886,0 -3.50191,0.48798 -5.91766,2.95873 -5.91766,2.95873 v -23.80904 h 31.35586 c 0,0 0.88498,-1.12217 0.88498,-4.3635 0,-3.24442 -0.88698,-4.37249 -0.88698,-4.37249 z"
     id="path9"
     style="fill:#0d0d0d"
     inkscape:connector-curvature="0" /><path
     inkscape:export-ydpi="900"
     inkscape:export-xdpi="900"
     inkscape:export-filename="C:\Users\Simon\Pictures\path29.png"
     d="M 203.87217,66.754443 H 151.8682 c 0,0 -0.88498,1.12207 -0.88498,4.36939 0,3.24443 0.88498,4.3636 0.88498,4.3636 h 20.30452 v 59.564087 c 0,0 1.47787,1.14857 5.70737,1.14857 4.2307,0 5.70146,-1.14857 5.70146,-1.14857 V 75.487433 h 20.29362 c 0,0 0.87798,-1.11917 0.87798,-4.3636 0,-3.24432 -0.88198,-4.36939 -0.88198,-4.36939 z"
     id="path11"
     style="fill:#0d0d0d"
     inkscape:connector-curvature="0" /><path
     inkscape:export-ydpi="900"
     inkscape:export-xdpi="900"
     inkscape:export-filename="C:\Users\Simon\Pictures\path29.png"
     d="m 827.11627,66.754443 h -52.0035 c 0,0 -0.877,1.12207 -0.877,4.36939 0,3.24443 0.877,4.3636 0.877,4.3636 h 20.3011 v 59.564087 c 0,0 1.4774,1.14857 5.7087,1.14857 4.2314,0 5.6973,-1.14857 5.6973,-1.14857 V 75.487433 h 20.2941 c 0,0 0.886,-1.11917 0.886,-4.3636 0,-3.24432 -0.884,-4.36939 -0.884,-4.36939 z"
     id="path13"
     style="fill:#0d0d0d"
     inkscape:connector-curvature="0" /><path
     inkscape:export-ydpi="900"
     inkscape:export-xdpi="900"
     inkscape:export-filename="C:\Users\Simon\Pictures\path29.png"
     d="m 588.87975,131.83279 c 0,-3.24442 -0.88398,-4.36649 -0.88398,-4.36649 h -33.50361 v -22.38867 h 26.59137 c 0,0 0.88098,-1.11998 0.88098,-4.3688 0,-3.242117 -0.88098,-4.361987 -0.88098,-4.361987 0,0 -18.77805,0 -20.65421,0 -3.55601,0.48198 -5.93716,2.95503 -5.93716,2.95503 v -23.80834 l 32.01135,-0.003 c 0,0 0.88498,-1.12217 0.88498,-4.3635 0,-3.24442 -0.88498,-4.37039 -0.88498,-4.37039 l -43.40518,0.003 v 69.442647 l 44.89444,2e-4 c 0.003,-2e-4 0.88698,-1.12227 0.88698,-4.3696 z"
     id="path15"
     style="fill:#0d0d0d"
     inkscape:connector-curvature="0" /><path
     inkscape:export-ydpi="900"
     inkscape:export-xdpi="900"
     inkscape:export-filename="C:\Users\Simon\Pictures\path29.png"
     d="m 770.03487,131.83279 c 0,-3.24442 -0.885,-4.36649 -0.885,-4.36649 h -33.5027 v -22.38867 h 26.5903 c 0,0 0.885,-1.11998 0.885,-4.3688 0,-3.242117 -0.885,-4.361987 -0.885,-4.361987 0,0 -18.77798,0 -20.65394,0 -3.55511,0.48198 -5.93636,2.95503 -5.93636,2.95503 v -23.80834 l 32.0109,-0.003 c 0,0 0.885,-1.12217 0.885,-4.3635 0,-3.24442 -0.885,-4.37039 -0.885,-4.37039 l -43.40333,0.003 v 69.442647 l 44.89313,2e-4 c 0,-2e-4 0.887,-1.12227 0.887,-4.3696 z"
     id="path17"
     style="fill:#0d0d0d"
     inkscape:connector-curvature="0" /><path
     inkscape:export-ydpi="900"
     inkscape:export-xdpi="900"
     inkscape:export-filename="C:\Users\Simon\Pictures\path29.png"
     d="m 393.94887,67.904613 c 0,0 1.47466,-1.14807 5.71466,-1.14807 4.2398,0 5.70977,1.14807 5.70977,1.14807 v 67.147407 c 0,0 -1.46997,1.14807 -5.70977,1.14807 -4.24,0 -5.71466,-1.14807 -5.71466,-1.14807 z"
     id="path19"
     style="fill:#0d0d0d"
     inkscape:connector-curvature="0" /><path
     inkscape:export-ydpi="900"
     inkscape:export-xdpi="900"
     inkscape:export-filename="C:\Users\Simon\Pictures\path29.png"
     d="m 421.58841,135.05202 c 0,0 1.45997,1.15017 5.70057,1.15017 4.2416,0 5.69916,-1.15017 5.69916,-1.15017 v -29.97439 h 7.49533 c 0,0 14.98024,23.94733 16.625,26.57097 1.39677,2.22475 2.56004,2.98223 4.1013,3.68231 1.30437,0.58099 2.84874,0.87898 4.4822,0.87898 h 6.27205 c 0,0 0.88098,-1.12977 0.88098,-4.40289 0,-3.27293 -0.88098,-4.4013 -0.88098,-4.4013 h -2.23695 c -0.98997,0 -2.08965,-0.155 -2.85723,-0.70398 -1.05337,-0.73699 -1.53856,-1.53827 -2.50844,-3.07963 -1.01288,-1.61076 -14.51496,-23.30325 -14.51496,-23.30325 l 21.4394,-33.564397 h -11.96612 l -19.25454,30.19848 h -7.07434 v -29.04941 c 0,0 -1.45796,-1.14907 -5.69936,-1.14907 -4.2408,0 -5.70077,1.14907 -5.70077,1.14907 v 67.148507 z"
     id="path21"
     style="fill:#0d0d0d"
     inkscape:connector-curvature="0" /><path
     inkscape:export-ydpi="900"
     inkscape:export-xdpi="900"
     inkscape:export-filename="C:\Users\Simon\Pictures\path29.png"
     d="m 663.89317,135.05202 c 0,0 1.46057,1.15017 5.70017,1.15017 4.2408,0 5.69836,-1.15017 5.69836,-1.15017 v -29.97439 h 7.49723 c 0,0 14.98014,23.94733 16.6233,26.57097 1.39627,2.22475 2.55994,2.98223 4.1008,3.68231 1.30697,0.58099 2.84924,0.87898 4.4833,0.87898 h 6.27135 c 0,0 0.89098,-1.12977 0.89098,-4.40289 0,-3.27293 -0.89098,-4.4013 -0.89098,-4.4013 h -2.23665 c -0.98997,0 -2.08965,-0.155 -2.85543,-0.70398 -1.05347,-0.73699 -1.53836,-1.53827 -2.50844,-3.07963 -1.01548,-1.61076 -14.51486,-23.30325 -14.51486,-23.30325 L 713.589,66.754443 h -11.96382 l -19.25594,30.19848 h -7.07514 v -29.04941 c 0,0 -1.45756,-1.14907 -5.69766,-1.14907 -4.2397,0 -5.70027,1.14907 -5.70027,1.14907 v 67.148507 z"
     id="path23"
     style="fill:#0d0d0d"
     inkscape:connector-curvature="0" /><path
     inkscape:export-ydpi="900"
     inkscape:export-xdpi="900"
     inkscape:export-filename="C:\Users\Simon\Pictures\path29.png"
     d="m 531.8795,81.860583 c 0.37099,-4.2362 0.47899,-10.11066 0.51499,-13.95597 0,0 -1.56286,-1.15017 -6.07526,-1.15017 -4.51259,0 -6.07315,1.15017 -6.07315,1.15017 -0.07,3.85551 -0.32,10.10596 -0.68899,17.13919 -0.41599,6.07486 -1.82405,12.44261 -4.1476,18.717457 -2.80553,7.59362 -9.96336,20.66831 -9.96336,20.66831 h -1.40247 c 0,0 -5.15488,-9.46938 -9.96926,-20.66831 -1.58297,-3.69441 -3.89971,-14.153867 -4.13621,-18.768957 -0.36899,-7.03083 -0.62798,-13.23108 -0.69198,-17.08709 0,0 -1.56476,-1.14867 -6.07466,-1.14867 -4.51519,0 -6.07485,1.14867 -6.07485,1.14867 0.03,3.84781 0.14299,9.70127 0.51499,13.93797 0.37799,3.65421 1.09377,11.17843 3.10152,16.6854 4.08791,11.230537 19.14285,37.673807 19.14285,37.673807 h 9.75567 c 0,0 15.23914,-26.44327 19.16994,-37.673807 1.80966,-5.18367 2.63784,-11.52742 3.09003,-16.668 z"
     id="path25"
     style="fill:#0d0d0d"
     inkscape:connector-curvature="0" /><path
     inkscape:export-ydpi="900"
     inkscape:export-xdpi="900"
     style="fill:#0d0d0d"
     id="path29"
     d="m 318.31576,135.05202 c -0.102,-4.2871 -1.24907,-17.24329 -1.24907,-17.24329 h -30.52958 c 0,0 -1.16617,12.5839 -1.31547,17.24329 0,0 -1.31057,1.15017 -5.56226,1.15017 -4.254,0 -5.56467,-1.15017 -5.56467,-1.15017 0,-1.25947 0.32599,-10.51295 1.14667,-16.49121 1.91085,-13.91897 6.90094,-24.182827 8.4297,-27.345647 1.63646,-3.37722 8.5325,-17.1385 13.42228,-24.45562 h 9.41938 c 4.55989,6.68204 11.84832,21.21659 13.41538,24.45562 1.51587,3.13412 6.98884,15.141037 8.4219,27.345647 0.72098,6.05686 1.05358,13.34848 0.99698,16.49121 0,0 -1.27887,1.15017 -5.51387,1.15017 -4.2363,0 -5.51747,-1.15017 -5.51747,-1.15017 z M 301.09397,78.532363 c -1.68686,3.41732 -5.36028,10.20576 -7.13033,14.20906 -2.51404,5.66707 -5.03068,12.924487 -6.33125,19.291537 0,0 2.47214,-2.47324 6.02515,-2.96513 3.06813,0 21.58909,0 21.58909,0 -1.40176,-6.04815 -3.75481,-11.919007 -5.62246,-16.326407 -2.13265,-5.03938 -5.50687,-11.08334 -7.10214,-14.20906 z"
     inkscape:connector-curvature="0" /></g><g
   id="g901"
   transform="matrix(1.4383446,0,0,1.4383446,257.62635,-0.00549869)"><path
     d="m 56.22657,161.99998 c 36.02404,0 52.36526,-26.60267 53.42023,-34.50208 -5.86026,8.4742 -28.11893,21.28309 -53.42023,21.28309 -25.2979,0 -47.55198,-12.80889 -53.42454,-21.28309 1.06128,7.89941 17.40129,34.50208 53.42454,34.50208 z"
     id="path33"
     style="fill:#ee3124"
     inkscape:connector-curvature="0" /><path
     d="m 56.22657,4.939003 c -0.73598,0 -1.37397,0.60399 -1.37397,1.37147 0,0.74798 0.62199,1.38017 1.37397,1.38017 0.75098,0 1.38707,-0.61599 1.38707,-1.38017 0.002,-0.74498 -0.61899,-1.37147 -1.38707,-1.37147 z"
     id="path35"
     style="fill:#ee3124"
     inkscape:connector-curvature="0" /><polygon
     transform="matrix(2.4497739,0,0,2.4497739,-619.77112,-651.08916)"
     points=""
     id="polygon37"
     style="fill:#ee3124" /><path
     style="fill:#ee3124"
     id="path41"
     d="m 63.89949,26.709883 c 0,-0.24199 0.40699,-0.54498 0.79898,-0.54498 8.83789,3.71131 16.8422,10.02486 22.11747,16.35731 3.55232,4.2628 5.74627,9.58317 4.86049,14.27706 -0.73798,3.92911 -4.2072,6.69044 -8.13361,6.13916 -3.96191,-0.55899 -6.59814,-4.1746 -6.13015,-8.14091 0.46899,-4.1737 4.63259,-5.96266 4.63259,-5.96266 -2.92103,-11.06794 -10.80075,-18.24097 -18.14707,-22.13577 z"
     inkscape:connector-curvature="0" /><path
     style="fill:#ee3124"
     id="path43"
     d="m 48.55205,26.709883 c 0,-0.24199 -0.41099,-0.54498 -0.79898,-0.54498 -8.83569,3.71131 -16.8423,10.02486 -22.11648,16.35731 -3.54901,4.2628 -5.74736,9.58317 -4.86018,14.27706 0.73398,3.92911 4.2061,6.69044 8.13291,6.13916 3.9612,-0.55899 6.59724,-4.1746 6.12925,-8.14091 -0.46999,-4.1737 -4.63249,-5.96266 -4.63249,-5.96266 2.92363,-11.06794 10.80114,-18.24097 18.14847,-22.13577 z"
     inkscape:connector-curvature="0" /><path
     style="fill:#ee3124"
     id="path45"
     d="m 55.33249,28.739143 c -2.22895,7.06863 -6.45425,21.32969 -6.45425,25.65499 0,4.3253 3.02753,7.82821 7.34833,7.82821 4.3239,0 7.35422,-3.50331 7.35422,-7.82821 0,-4.3253 -4.2307,-18.58636 -6.46254,-25.65499 -0.40499,-0.293 -1.32157,-0.293 -1.78576,0 z"
     inkscape:connector-curvature="0" /><path
     d="m 66.42073,85.482493 c 5.40127,0 23.73363,0.56299 23.73363,0.56299 6.55735,-1.98865 9.88657,-6.56525 10.97194,-14.82825 0,0 -20.9987,-0.97498 -44.89693,-0.97498 -23.89794,0 -44.71084,0.97498 -44.71084,0.97498 1.07397,8.2654 4.40739,12.8419 10.96014,14.82825 0,0 18.32656,-0.56299 23.73574,-0.56299 v 42.198697 c 0,2.08845 4.57919,5.04958 10.01496,5.04958 5.43817,0 10.19446,-2.93253 10.19446,-5.04958 0,0 0,-28.087827 0,-31.551147 -2.23995,-7.09433 -8.16831,-10.58115 -8.18261,-10.69895 l 8.17951,0.07 z"
     id="path47"
     style="fill:#ee3124"
     inkscape:connector-curvature="0" /><path
     style="fill:#c4122f"
     id="path53"
     d="m 56.22657,3.726933 c 1.03157,0 1.86735,-0.83998 1.86735,-1.86456 0,-1.03007007 -0.83998,-1.85855007 -1.86735,-1.85855007 -1.00938,0 -1.84446,0.82898 -1.84446,1.85855007 0,1.03088 0.84398,1.86456 1.84446,1.86456 z"
     inkscape:connector-curvature="0" /><path
     style="fill:#c4122f"
     id="path55"
     d="m 51.79797,8.176623 c 1.02588,0 1.84556,-0.84398 1.84556,-1.86295 0,-1.01968 -0.81698,-1.85946 -1.84556,-1.85946 -1.03667,0 -1.86625,0.84598 -1.86625,1.85946 0,1.02387 0.83498,1.86295 1.86625,1.86295 z"
     inkscape:connector-curvature="0" /><path
     style="fill:#c4122f"
     id="path57"
     d="m 60.69506,8.176623 c 1.02688,0 1.84716,-0.84398 1.84716,-1.86295 0,-1.01968 -0.82298,-1.85946 -1.84716,-1.85946 -1.03387,0 -1.86425,0.84598 -1.86425,1.85946 0,1.02387 0.83198,1.86295 1.86425,1.86295 z"
     inkscape:connector-curvature="0" /><path
     d="m 15.08894,111.06039 c 0,0 -2.84313,-11.377127 -12.89199,-10.85755 -3.85121,7.36843 -2.22315,15.02535 2.42784,22.14868 4.1463,6.31785 14.57936,13.28368 21.99478,14.24656 -0.003,0.003 -16.03212,-11.69802 -11.53063,-25.53769 z"
     id="path59"
     style="fill:#c4122f"
     inkscape:connector-curvature="0" /><path
     d="m 97.36829,111.06039 c 0,0 2.85004,-11.377127 12.8939,-10.85755 3.85391,7.36843 2.22355,15.03975 -2.42854,22.14868 -4.14271,6.31785 -14.57866,13.28368 -21.99148,14.24656 0,0.003 16.02892,-11.69802 11.52612,-25.53769 z"
     id="path61"
     style="fill:#c4122f"
     inkscape:connector-curvature="0" /><path
     d="m 56.22657,12.628423 c 1.03157,0 1.86735,-0.84098 1.86735,-1.85986 0,-1.02947 -0.83998,-1.86625 -1.86735,-1.86625 -1.00938,0 -1.84446,0.83998 -1.84446,1.86625 0,1.02238 0.84398,1.85986 1.84446,1.85986 z"
     id="path63"
     style="fill:#c4122f"
     inkscape:connector-curvature="0" /><path
     d="m 56.22657,23.598663 c 2.74183,0 4.95838,-2.20465 4.95838,-4.93838 0,-2.74744 -2.21955,-4.94659 -4.95838,-4.94659 -2.72404,0 -4.94978,2.19605 -4.94978,4.94659 0.002,2.73373 2.22574,4.93838 4.94978,4.93838 z"
     id="path65"
     style="fill:#c4122f"
     inkscape:connector-curvature="0" /><path
     d="m 112.45154,44.609563 c -8.13471,-9.46867 -24.03183,-17.68598 -44.84074,-21.45819 -0.234,0.102 -0.43899,0.27799 -0.40999,0.60398 19.58073,5.15388 29.98529,12.48741 39.50216,23.07986 -2.78983,0.82598 -5.17098,2.89203 -6.29055,5.81836 -1.76376,4.58379 0.48499,9.48408 5.36017,12.00382 l 6.69285,-20.05603 z"
     id="path67"
     style="fill:#c4122f"
     inkscape:connector-curvature="0" /><path
     d="m 0.0076,44.609563 c 8.13261,-9.46867 24.02433,-17.68598 44.84054,-21.45819 0.24199,0.102 0.43899,0.27799 0.41999,0.60398 -19.58374,5.15388 -29.99119,12.48741 -39.50927,23.07986 2.78704,0.82598 5.17418,2.89203 6.29415,5.81836 1.76036,4.58379 -0.48798,9.48408 -5.36867,12.00382 L 0,44.601363 Z"
     id="path69"
     style="fill:#c4122f"
     inkscape:connector-curvature="0" /></g>
</svg>